<?xml version="1.0" encoding="UTF-8" standalone="no"?>
<svg
   xmlns:dc="http://purl.org/dc/elements/1.1/"
   xmlns:cc="http://creativecommons.org/ns#"
   xmlns:rdf="http://www.w3.org/1999/02/22-rdf-syntax-ns#"
   xmlns:svg="http://www.w3.org/2000/svg"
   xmlns="http://www.w3.org/2000/svg"
   xmlns:sodipodi="http://sodipodi.sourceforge.net/DTD/sodipodi-0.dtd"
   xmlns:inkscape="http://www.inkscape.org/namespaces/inkscape"
   id="Layer_1"
   data-name="Layer 1"
   viewBox="0 0 498.17 442.04"
   version="1.1"
   sodipodi:docname="icon_utility.svg"
   inkscape:version="0.92.5 (2060ec1f9f, 2020-04-08)">
  <metadata
     id="metadata29">
    <rdf:RDF>
      <cc:Work
         rdf:about="">
        <dc:format>image/svg+xml</dc:format>
        <dc:type
           rdf:resource="http://purl.org/dc/dcmitype/StillImage" />
        <dc:title />
      </cc:Work>
    </rdf:RDF>
  </metadata>
  <sodipodi:namedview
     pagecolor="#a65f5f"
     bordercolor="#666666"
     borderopacity="1"
     objecttolerance="10"
     gridtolerance="10"
     guidetolerance="10"
     inkscape:pageopacity="0"
     inkscape:pageshadow="2"
     inkscape:window-width="1343"
     inkscape:window-height="812"
     id="namedview27"
     showgrid="false"
     inkscape:zoom="0.53388833"
     inkscape:cx="-90.873723"
     inkscape:cy="221.02"
     inkscape:window-x="0"
     inkscape:window-y="0"
     inkscape:window-maximized="0"
     inkscape:current-layer="Layer_1" />
  <defs
     id="defs4">
    <style
       id="style2">.cls-1{fill:#fff;}</style>
  </defs>
  <path
     class="cls-1"
     d="m 102.88041,58.391463 h 248.70873 a 13.221261,13.221261 0 0 1 13.20394,12.129598 42.003064,42.003064 0 0 1 13.58515,-2.269973 40.703463,40.703463 0 0 1 11.00327,1.490217 V 59.916321 A 28.660506,28.660506 0 0 0 360.73832,31.273147 H 92.587581 A 28.660506,28.660506 0 0 0 63.944405,59.916321 V 407.53326 a 28.660506,28.660506 0 0 0 28.643176,28.64318 H 360.73832 A 28.660506,28.660506 0 0 0 389.3815,407.53326 V 384.9029 a 57.182389,57.182389 0 0 1 -24.51912,-0.53717 v 10.13688 a 13.273246,13.273246 0 0 1 -13.27324,13.29058 H 102.88041 A 13.23859,13.23859 0 0 1 89.607169,394.50261 V 71.664707 A 13.255917,13.255917 0 0 1 102.88041,58.391463 Z"
     id="path6"
     inkscape:connector-curvature="0"
     style="opacity:0.6;fill:#3f4d5a;fill-opacity:1;stroke-width:1.73279965" />
  <rect
     class="cls-1"
     x="147.46535"
     y="2.1274531"
     width="159.55618"
     height="69.814499"
     rx="16.184349"
     id="rect8"
     style="opacity:0.6;fill:#3f4d5a;fill-opacity:1;stroke-width:1.73279965" />
  <path
     class="cls-1"
     d="m 165.46913,105.93948 a 14.434225,14.434225 0 1 0 0,28.86845 h 129.28418 a 14.453893,14.453893 0 0 0 1.50754,-28.86845 z"
     id="path10"
     inkscape:connector-curvature="0"
     style="opacity:0.6;fill:#3f4d5a;fill-opacity:1;stroke-width:1.73279965" />
  <path
     class="cls-1"
     d="m 213.55433,154.05933 a 14.434225,14.434225 0 1 0 0,28.86845 h 81.19898 a 14.453893,14.453893 0 0 0 1.50754,-28.86845 z"
     id="path12"
     inkscape:connector-curvature="0"
     style="opacity:0.6;fill:#3f4d5a;fill-opacity:1;stroke-width:1.73279965" />
  <path
     class="cls-1"
     d="m 165.46913,202.17918 a 14.434223,14.434223 0 1 0 0,28.86844 h 129.28418 a 14.453891,14.453891 0 0 0 1.50754,-28.86844 z"
     id="path14"
     inkscape:connector-curvature="0"
     style="opacity:0.6;fill:#3f4d5a;fill-opacity:1;stroke-width:1.73279965" />
  <path
     class="cls-1"
     d="m 407.4546,322.92065 a 29.076378,29.076378 0 1 1 -36.97794,-27.9154 V 161.4064 a 8.0748464,8.0748464 0 0 1 8.02286,-8.14416 8.2481264,8.2481264 0 0 1 7.86692,8.1095 V 294.9706 a 29.215002,29.215002 0 0 1 21.08816,27.95005 z"
     id="path16"
     inkscape:connector-curvature="0"
     style="opacity:0.6;fill:#3f4d5a;fill-opacity:1;stroke-width:1.73279965" />
  <path
     class="cls-1"
     d="M 415.99731,275.07805 V 107.9322 c -0.10395,-21.885254 -18.85286,-34.396075 -37.61908,-34.396075 -18.76622,0 -37.46314,12.528153 -37.3765,34.396075 -1.09166,55.96943 0.71045,108.71585 -0.0866,166.95524 a 59.4177,59.4177 0 1 0 75.08221,0.19061 z m -37.61908,86.12015 a 40.703463,40.703463 0 0 1 -22.82097,-74.33711 9.5997101,9.5997101 0 0 0 4.10673,-7.72829 c 0,-59.15778 -0.1213,-113.06517 0.10395,-171.16594 0.1213,-9.322471 9.25315,-15.595198 18.8182,-15.595198 v 0 c 9.20117,0 18.5583,6.255407 18.64493,15.595198 v 171.25258 a 9.5303981,9.5303981 0 0 0 4.10674,7.7283 40.686136,40.686136 0 0 1 -22.95959,74.25046 z"
     id="path18"
     inkscape:connector-curvature="0"
     style="opacity:0.6;fill:#3f4d5a;fill-opacity:1;stroke-width:1.73279965" />
  <path
     class="cls-1"
     d="m 213.55433,250.29902 a 14.434225,14.434225 0 1 0 0,28.86845 h 81.19898 a 14.453893,14.453893 0 0 0 1.50754,-28.86845 z"
     id="path20"
     inkscape:connector-curvature="0"
     style="opacity:0.6;fill:#3f4d5a;fill-opacity:1;stroke-width:1.73279965" />
  <path
     class="cls-1"
     d="m 165.46913,298.41887 a 14.451549,14.451549 0 1 0 0,28.88577 h 129.28418 a 14.468877,14.468877 0 0 0 1.50754,-28.88577 z"
     id="path22"
     inkscape:connector-curvature="0"
     style="opacity:0.6;fill:#3f4d5a;fill-opacity:1;stroke-width:1.73279965" />
  <path
     class="cls-1"
     d="m 213.55433,346.53872 a 14.451549,14.451549 0 1 0 0,28.88576 h 81.19898 a 14.468877,14.468877 0 0 0 1.50754,-28.88576 z"
     id="path24"
     inkscape:connector-curvature="0"
     style="opacity:0.6;fill:#3f4d5a;fill-opacity:1;stroke-width:1.73279965" />
</svg>
