<svg height="512pt" viewBox="0 0 512 512" width="512pt" xmlns="http://www.w3.org/2000/svg"><path d="m512 256c0 141.386719-114.613281 256-256 256s-256-114.613281-256-256 114.613281-256 256-256 256 114.613281 256 256zm0 0" fill="#d88cff"/><path d="m277.425781 511.101562c131.355469-10.886718 234.574219-120.933593 234.574219-255.101562 0-6.761719-.265625-13.457031-.78125-20.085938l-113.125-113.125-284.1875 216.46875 41.628906 41v8.953126zm0 0" fill="#be40ff"/><path d="m298.183594 347.582031v-24.976562h-58.835938v58.28125l83.8125-8.328125c-13.738281 0-24.976562-11.238282-24.976562-24.976563zm0 0" fill="#3e575f"/><path d="m213.816406 322.605469v24.976562c0 13.738281-11.242187 24.976563-24.976562 24.976563l67.160156 8.328125v-58.28125zm0 0" fill="#5c6f74"/><path d="m398.09375 297.628906v-174.839844h-142.09375l-38.851562 191.492188zm0 0" fill="#7acbfc"/><path d="m256 122.789062h-142.09375v174.839844l142.09375 16.652344zm0 0" fill="#d2ecfd"/><path d="m381.441406 280.976562v-141.535156h-125.441406l-38.851562 70.765625 38.851562 70.769531zm0 0" fill="#a7dcfc"/><path d="m130.558594 139.441406h125.441406v141.535156h-125.441406zm0 0" fill="#fff"/><path d="m398.09375 297.628906h-142.09375l-22.203125 20.8125 22.203125 20.816406h142.09375zm0 0" fill="#7a888a"/><path d="m113.90625 297.628906h142.09375v41.628906h-142.09375zm0 0" fill="#98a09f"/><path d="m256 372.558594-16.652344 8.328125 16.652344 8.324219h100.464844v-16.652344zm0 0" fill="#5c6f74"/><path d="m155.535156 372.558594h100.464844v16.652344h-100.464844zm0 0" fill="#7a888a"/><path d="m224.601562 197.71875h-69.066406v33.304688h69.066406c4.570313 12.933593 16.898438 22.203124 31.398438 22.203124l16.652344-38.855468-16.652344-38.851563c-14.5 0-26.828125 9.265625-31.398438 22.199219zm0 0" fill="#2b5c74"/><g fill="#4bb4f5"><path d="m314.28125 164.417969h83.8125v16.648437h-83.8125zm0 0"/><path d="m314.28125 206.046875h67.160156v16.648437h-67.160156zm0 0"/><path d="m314.28125 247.675781h83.8125v16.648438h-83.8125zm0 0"/></g><path d="m256 139.441406h41.628906v141.535156h-41.628906zm0 0" fill="#203f49"/></svg>