<?xml version="1.0"?>
<svg xmlns="http://www.w3.org/2000/svg" xmlns:xlink="http://www.w3.org/1999/xlink" xmlns:svgjs="http://svgjs.com/svgjs" version="1.1" width="512" height="512" x="0" y="0" viewBox="0 0 512 512" style="enable-background:new 0 0 512 512" xml:space="preserve" class=""><g><g xmlns="http://www.w3.org/2000/svg"><circle cx="76.5" cy="69.5" fill="#aab1c7" r="59.5" data-original="#aab1c7" style="" class=""/><path d="m99 78c0-12.426-10.074-22.5-22.5-22.5-12.427 0-22.5 10.074-22.5 22.5v1c0 35.346 28.654 64 64 64h317c12.15 0 22 9.85 22 22 0 12.15-9.85 22-22 22h-357.5c-37.279 0-67.5 30.221-67.5 67.5 0 37.279 30.221 67.5 67.5 67.5h357c12.426 0 22.5 10.074 22.5 22.5 0 12.426-10.074 22.5-22.5 22.5h-357c-37.279 0-67.5 30.221-67.5 67.5 0 37.279 30.221 67.5 67.5 67.5h363c12.426 0 22.5-10.074 22.5-22.5 0-12.426-10.074-22.5-22.5-22.5h-363c-12.427 0-22.5-10.074-22.5-22.5 0-12.426 10.074-22.5 22.5-22.5h357c37.279 0 67.5-30.221 67.5-67.5 0-37.279-30.221-67.5-67.5-67.5h-357c-12.427 0-22.5-10.074-22.5-22.5 0-12.426 10.074-22.5 22.5-22.5h357.5c37.003 0 67-29.997 67-67 0-37.003-29.997-67-67-67h-316c-11.046 0-20-8.954-20-20z" fill="#ffffff" data-original="#ffffff" style="" class=""/><g><circle cx="76.5" cy="10" r="10" fill="#596673" data-original="#000000" style="" class=""/><path d="m77.5 422h357c42.73 0 77.5-34.77 77.5-77.5s-34.77-77.5-77.5-77.5h-357c-6.89 0-12.5-5.61-12.5-12.5s5.61-12.5 12.5-12.5h357.5c42.46 0 77-34.54 77-77s-34.54-77-77-77h-291.49c1.65-5.98 2.49-12.18 2.49-18.5 0-9.73-1.98-19.15-5.88-28-3.77-8.56-9.13-16.15-15.94-22.57-1.86-1.75-4.3-2.72-6.86-2.72-2.78 0-5.37 1.11-7.27 3.14-3.79 4.01-3.6 10.35.41 14.13 10.02 9.47 15.54 22.26 15.54 36.02 0 6.44-1.23 12.7-3.56 18.5h-3.44c-5.51 0-10-4.49-10-10 0-17.92-14.58-32.5-32.5-32.5-17.417 0-31.679 13.773-32.466 31-.023.497-.023 4.004 0 4.752.338 11.246 3.198 21.867 8.036 31.319-3.82-2.17-7.37-4.87-10.57-8.07-9.35-9.361-14.5-21.791-14.5-35.001 0-13.76 5.52-26.55 15.54-36.02 4.01-3.78 4.2-10.12.42-14.13-1.91-2.03-4.5-3.14-7.28-3.14-2.56 0-5 .97-6.86 2.72-6.81 6.42-12.17 14.01-15.94 22.56-3.91 8.86-5.88 18.28-5.88 28.01 0 9.38 1.84 18.49 5.46 27.05 3.5 8.28 8.51 15.71 14.9 22.09 6.38 6.38 13.81 11.4 22.09 14.9 8.02 3.39 16.51 5.22 25.26 5.44 12.18 8.82 27.14 14.02 43.29 14.02h317c6.62 0 12 5.38 12 12s-5.38 12-12 12h-357.5c-42.73 0-77.5 34.77-77.5 77.5s34.77 77.5 77.5 77.5h357c6.89 0 12.5 5.61 12.5 12.5s-5.61 12.5-12.5 12.5h-357c-42.73 0-77.5 34.77-77.5 77.5s34.77 77.5 77.5 77.5h363c14.431 0 26.69-9 30.919-22h30.581c5.523 0 10-4.478 10-10s-4.477-10-10-10h-30.581c-4.229-14-16.487-23-30.919-23h-363c-6.89 0-12.5-5.61-12.5-12.5s5.61-12.5 12.5-12.5zm355.5 45h7.5c6.89 0 12.5 5.61 12.5 12.5s-5.61 12.5-12.5 12.5h-7.5zm-355.5 0h335.5v25h-335.5c-31.71 0-57.5-25.79-57.5-57.5s25.79-57.5 57.5-57.5h357c17.92 0 32.5-14.58 32.5-32.5s-14.58-32.5-32.5-32.5h-357c-31.71 0-57.5-25.79-57.5-57.5s25.79-57.5 57.5-57.5h357.5c17.65 0 32-14.36 32-32s-14.35-32-32-32h-317c-3.72 0-7.355 0-10.865-1-9.76-2-18.575-6.7-25.645-13.2-10.11-9.282-16.673-22.412-17.419-37.01-.047-.924-.062-4.346-.044-4.621.43-6.505 5.862-11.669 12.473-11.669 6.89 0 12.5 5.61 12.5 12.5 0 13.2 8.58 24.44 20.45 28.44 3 1.01 6.21 1.56 9.55 1.56h316c31.43 0 57 25.57 57 57s-25.57 57-57 57h-357.5c-17.92 0-32.5 14.58-32.5 32.5s14.58 32.5 32.5 32.5h357c31.71 0 57.5 25.79 57.5 57.5s-25.79 57.5-57.5 57.5h-357c-17.92 0-32.5 14.58-32.5 32.5s14.58 32.5 32.5 32.5z" fill="#596673" data-original="#000000" style="" class=""/></g></g></g></svg>