<?xml version="1.0" encoding="UTF-8" standalone="no"?>
<!-- Created with Inkscape (http://www.inkscape.org/) -->

<svg
   xmlns:dc="http://purl.org/dc/elements/1.1/"
   xmlns:cc="http://creativecommons.org/ns#"
   xmlns:rdf="http://www.w3.org/1999/02/22-rdf-syntax-ns#"
   xmlns:svg="http://www.w3.org/2000/svg"
   xmlns="http://www.w3.org/2000/svg"
   xmlns:sodipodi="http://sodipodi.sourceforge.net/DTD/sodipodi-0.dtd"
   xmlns:inkscape="http://www.inkscape.org/namespaces/inkscape"
   version="1.1"
   id="svg2"
   xml:space="preserve"
   width="664.22266"
   height="589.38934"
   viewBox="0 0 664.22266 589.38934"
   sodipodi:docname="warmer.svg"
   inkscape:version="0.92.5 (2060ec1f9f, 2020-04-08)"><metadata
     id="metadata8"><rdf:RDF><cc:Work
         rdf:about=""><dc:format>image/svg+xml</dc:format><dc:type
           rdf:resource="http://purl.org/dc/dcmitype/StillImage" /><dc:title></dc:title></cc:Work></rdf:RDF></metadata><defs
     id="defs6"><clipPath
       clipPathUnits="userSpaceOnUse"
       id="clipPath18"><path
         d="M 0,442.042 H 498.167 V 0 H 0 Z"
         id="path16"
         inkscape:connector-curvature="0" /></clipPath><clipPath
       clipPathUnits="userSpaceOnUse"
       id="clipPath50"><path
         d="m 218.395,315.234 -0.293,-157.182 125.412,17.625 0.292,157.183 z"
         id="path48"
         inkscape:connector-curvature="0" /></clipPath></defs><sodipodi:namedview
     pagecolor="#ffffff"
     bordercolor="#666666"
     borderopacity="1"
     objecttolerance="10"
     gridtolerance="10"
     guidetolerance="10"
     inkscape:pageopacity="0"
     inkscape:pageshadow="2"
     inkscape:window-width="1360"
     inkscape:window-height="801"
     id="namedview4"
     showgrid="false"
     inkscape:zoom="0.40041443"
     inkscape:cx="332.11133"
     inkscape:cy="294.69467"
     inkscape:window-x="0"
     inkscape:window-y="0"
     inkscape:window-maximized="0"
     inkscape:current-layer="g10" /><g
     id="g10"
     inkscape:groupmode="layer"
     inkscape:label="Web Puzzlers Icons Svg"
     transform="matrix(1.3333333,0,0,-1.3333333,0,589.38933)"><g
       id="g12"
       transform="matrix(1.2646078,0,0,1.2646078,-72.354479,-61.293453)"><g
         id="g14"
         clip-path="url(#clipPath18)"><g
           id="g20"
           transform="translate(218.1745,65.1772)"><path
             d="m 0,0 c -2.394,4.876 -3.72,10.576 -3.709,16.775 10e-4,0.723 0.025,1.444 0.063,2.163 0.012,0.235 0.034,0.468 0.05,0.701 0.033,0.487 0.071,0.973 0.121,1.456 0.028,0.271 0.061,0.54 0.094,0.809 0.055,0.45 0.115,0.899 0.184,1.347 0.042,0.273 0.086,0.546 0.133,0.817 0.078,0.453 0.165,0.903 0.256,1.352 0.052,0.255 0.102,0.51 0.158,0.763 0.113,0.507 0.238,1.011 0.368,1.513 0.049,0.188 0.092,0.377 0.142,0.563 0.187,0.686 0.389,1.366 0.606,2.041 0.045,0.139 0.097,0.276 0.143,0.415 0.173,0.519 0.353,1.036 0.544,1.548 0.295,0.792 0.607,1.578 0.943,2.351 l -18.325,9.968 c -0.336,-0.773 -0.647,-1.558 -0.942,-2.35 -0.025,-0.065 -0.054,-0.128 -0.078,-0.192 -0.165,-0.451 -0.317,-0.907 -0.469,-1.364 -0.045,-0.136 -0.096,-0.27 -0.14,-0.407 -0.218,-0.674 -0.419,-1.355 -0.606,-2.04 -0.052,-0.189 -0.095,-0.381 -0.144,-0.571 -0.129,-0.499 -0.254,-1.001 -0.366,-1.505 -0.057,-0.255 -0.107,-0.511 -0.159,-0.766 -0.092,-0.449 -0.178,-0.898 -0.256,-1.35 -0.047,-0.272 -0.09,-0.544 -0.132,-0.818 -0.069,-0.448 -0.13,-0.898 -0.185,-1.349 -0.032,-0.268 -0.065,-0.535 -0.093,-0.805 -0.051,-0.486 -0.088,-0.974 -0.122,-1.462 -0.016,-0.232 -0.037,-0.463 -0.049,-0.695 -0.038,-0.72 -0.062,-1.441 -0.063,-2.165 -0.012,-6.199 1.315,-11.899 3.708,-16.775 1.843,-3.785 4.316,-7.086 7.281,-9.774 1.778,-1.613 3.733,-3.005 5.836,-4.148 l 18.325,-9.969 C 7.511,-10.873 2.948,-6.056 0,0"
             style="fill:#6b0806;fill-opacity:1;fill-rule:nonzero;stroke:none"
             id="path22"
             inkscape:connector-curvature="0" /></g><g
           id="g24"
           transform="translate(136.0357,88.2338)"><path
             d="m 0,0 -18.325,9.968 0.097,51.954 18.324,-9.969 z"
             style="fill:#6b0806;fill-opacity:1;fill-rule:nonzero;stroke:none"
             id="path26"
             inkscape:connector-curvature="0" /></g><g
           id="g28"
           transform="translate(188.0206,184.5874)"><path
             d="m 0,0 c 0.19,0.39 0.37,0.785 0.555,1.177 0.285,0.607 0.57,1.214 0.842,1.828 0.187,0.423 0.366,0.85 0.547,1.276 0.252,0.593 0.501,1.187 0.741,1.786 0.176,0.442 0.346,0.888 0.516,1.333 0.129,0.339 0.268,0.674 0.393,1.014 0.082,0.225 0.153,0.454 0.233,0.68 0.217,0.607 0.424,1.217 0.628,1.829 0.172,0.518 0.344,1.037 0.506,1.558 0.194,0.62 0.375,1.243 0.555,1.867 0.151,0.522 0.302,1.044 0.442,1.57 0.169,0.634 0.325,1.271 0.48,1.91 0.127,0.522 0.257,1.044 0.374,1.569 0.146,0.654 0.276,1.312 0.406,1.97 0.103,0.517 0.211,1.032 0.303,1.551 0.122,0.678 0.224,1.359 0.329,2.041 0.078,0.506 0.163,1.01 0.232,1.517 0.097,0.717 0.171,1.438 0.25,2.158 0.051,0.477 0.114,0.952 0.157,1.431 0.073,0.802 0.121,1.607 0.17,2.413 0.025,0.401 0.062,0.8 0.081,1.202 0.056,1.21 0.088,2.423 0.09,3.639 0.049,26.191 -12.615,47.43 -31.698,57.811 l -18.324,9.968 c 19.083,-10.381 31.746,-31.62 31.698,-57.811 -0.003,-1.216 -0.034,-2.428 -0.09,-3.637 -0.02,-0.408 -0.057,-0.814 -0.083,-1.221 -0.049,-0.799 -0.096,-1.599 -0.168,-2.394 -0.044,-0.483 -0.107,-0.962 -0.159,-1.443 -0.078,-0.716 -0.152,-1.433 -0.249,-2.146 -0.069,-0.511 -0.154,-1.018 -0.233,-1.527 -0.104,-0.678 -0.206,-1.356 -0.327,-2.03 -0.093,-0.522 -0.201,-1.039 -0.304,-1.558 -0.13,-0.657 -0.26,-1.313 -0.405,-1.965 -0.117,-0.525 -0.247,-1.046 -0.374,-1.567 -0.155,-0.64 -0.311,-1.279 -0.481,-1.914 -0.14,-0.524 -0.291,-1.045 -0.441,-1.566 -0.18,-0.625 -0.361,-1.25 -0.555,-1.871 -0.163,-0.521 -0.334,-1.038 -0.507,-1.555 -0.203,-0.613 -0.41,-1.223 -0.628,-1.83 -0.202,-0.568 -0.412,-1.133 -0.626,-1.696 -0.169,-0.445 -0.339,-0.889 -0.515,-1.33 -0.24,-0.601 -0.49,-1.197 -0.743,-1.792 -0.18,-0.424 -0.358,-0.849 -0.545,-1.27 -0.273,-0.616 -0.559,-1.226 -0.846,-1.835 -0.184,-0.39 -0.362,-0.783 -0.551,-1.17 -0.325,-0.666 -0.666,-1.324 -1.007,-1.981 -0.167,-0.321 -0.327,-0.646 -0.497,-0.965 -0.488,-0.912 -0.992,-1.814 -1.51,-2.707 -0.134,-0.231 -0.274,-0.457 -0.41,-0.687 -0.398,-0.673 -0.804,-1.341 -1.219,-2.002 -0.183,-0.292 -0.369,-0.582 -0.555,-0.872 -0.407,-0.631 -0.821,-1.255 -1.243,-1.875 -0.17,-0.25 -0.337,-0.502 -0.51,-0.75 -0.191,-0.275 -0.392,-0.542 -0.585,-0.815 -0.715,-1.005 -1.451,-1.993 -2.205,-2.964 -0.226,-0.292 -0.45,-0.585 -0.679,-0.873 -0.911,-1.145 -1.844,-2.27 -2.807,-3.365 -0.651,-0.739 -1.313,-1.467 -1.987,-2.183 -0.169,-0.178 -0.341,-0.353 -0.511,-0.53 -0.544,-0.569 -1.096,-1.13 -1.655,-1.683 -0.213,-0.21 -0.425,-0.42 -0.64,-0.628 -0.648,-0.627 -1.303,-1.244 -1.968,-1.849 -0.083,-0.075 -0.164,-0.153 -0.247,-0.228 -0.758,-0.685 -1.53,-1.351 -2.312,-2.006 -0.224,-0.188 -0.453,-0.37 -0.679,-0.556 -0.571,-0.468 -1.146,-0.929 -1.727,-1.38 -0.273,-0.212 -0.548,-0.422 -0.823,-0.63 -0.578,-0.438 -1.162,-0.865 -1.751,-1.286 -0.248,-0.178 -0.494,-0.358 -0.744,-0.533 -0.505,-0.353 -1.02,-0.69 -1.532,-1.031 -0.408,-0.271 -0.813,-0.548 -1.225,-0.811 -0.518,-0.33 -1.045,-0.645 -1.57,-0.962 -0.407,-0.247 -0.809,-0.5 -1.219,-0.738 -0.553,-0.321 -1.114,-0.623 -1.674,-0.93 -0.392,-0.215 -0.78,-0.439 -1.176,-0.646 -0.612,-0.322 -1.233,-0.622 -1.853,-0.926 -0.353,-0.173 -0.701,-0.357 -1.057,-0.525 -0.565,-0.266 -1.14,-0.51 -1.711,-0.761 -0.431,-0.19 -0.857,-0.391 -1.291,-0.572 -0.604,-0.252 -1.218,-0.48 -1.827,-0.716 -0.41,-0.158 -0.815,-0.328 -1.228,-0.479 -0.689,-0.251 -1.387,-0.477 -2.083,-0.707 -0.341,-0.112 -0.678,-0.237 -1.021,-0.345 -1.042,-0.326 -2.093,-0.628 -3.151,-0.905 l 18.324,-9.968 c 1.058,0.276 2.109,0.579 3.152,0.905 0.342,0.107 0.679,0.233 1.02,0.345 0.696,0.23 1.395,0.456 2.084,0.707 0.41,0.15 0.813,0.319 1.22,0.476 0.613,0.237 1.228,0.466 1.834,0.719 0.434,0.181 0.861,0.382 1.291,0.571 0.547,0.241 1.097,0.472 1.638,0.726 0.025,0.011 0.048,0.024 0.073,0.036 0.361,0.17 0.714,0.356 1.073,0.532 0.614,0.301 1.23,0.599 1.836,0.917 0.398,0.21 0.789,0.435 1.184,0.651 0.558,0.306 1.117,0.607 1.668,0.927 0.409,0.238 0.811,0.49 1.216,0.736 0.526,0.318 1.054,0.633 1.573,0.964 0.412,0.263 0.816,0.54 1.224,0.811 0.411,0.273 0.827,0.535 1.234,0.816 0.1,0.07 0.198,0.144 0.299,0.215 0.25,0.174 0.496,0.355 0.744,0.532 0.589,0.421 1.172,0.849 1.751,1.286 0.275,0.209 0.549,0.419 0.822,0.631 0.581,0.451 1.155,0.911 1.725,1.378 0.228,0.187 0.457,0.37 0.683,0.559 0.76,0.636 1.512,1.284 2.251,1.949 0.02,0.018 0.04,0.037 0.06,0.055 0.083,0.075 0.164,0.154 0.247,0.229 0.664,0.604 1.319,1.221 1.966,1.847 0.216,0.209 0.43,0.42 0.643,0.632 0.558,0.551 1.108,1.11 1.651,1.678 0.171,0.178 0.345,0.354 0.515,0.534 0.639,0.679 1.27,1.366 1.889,2.066 0.033,0.038 0.063,0.078 0.096,0.116 0.963,1.094 1.895,2.219 2.807,3.363 0.23,0.289 0.454,0.583 0.68,0.875 0.754,0.971 1.489,1.958 2.203,2.962 0.121,0.171 0.254,0.332 0.374,0.504 0.073,0.103 0.142,0.21 0.214,0.314 0.171,0.246 0.337,0.497 0.506,0.745 0.423,0.622 0.839,1.248 1.247,1.881 0.185,0.288 0.369,0.577 0.552,0.867 0.416,0.663 0.823,1.332 1.222,2.007 0.135,0.229 0.275,0.454 0.408,0.684 0.492,0.847 0.973,1.701 1.437,2.566 0.025,0.047 0.048,0.095 0.073,0.142 0.171,0.319 0.331,0.645 0.499,0.967 0.34,0.656 0.68,1.312 1.005,1.977"
             style="fill:#6c0806;fill-opacity:1;fill-rule:nonzero;stroke:none"
             id="path30"
             inkscape:connector-curvature="0" /></g><g
           id="g32"
           transform="translate(339.7487,384.1075)"><path
             d="m 0,0 c 22.525,3.166 40.752,-13.98 40.707,-38.284 l -0.415,-223.297 -96.854,-13.612 c 2.394,-4.884 3.745,-10.572 3.733,-16.78 -0.011,-6.199 -1.36,-12.275 -3.773,-17.826 -5.928,-13.755 -18.296,-24.379 -32.539,-26.381 -14.218,-1.998 -26.546,5.155 -32.433,17.25 -2.394,4.875 -3.721,10.575 -3.709,16.774 0.012,6.208 1.384,12.279 3.805,17.84 l -82.235,-11.558 0.097,51.953 c 34.051,8.909 60.648,43.876 60.718,81.72 0.071,37.851 -26.41,65.359 -60.447,64.698 l 0.129,68.943 z"
             style="fill:#ad130f;fill-opacity:1;fill-rule:nonzero;stroke:none"
             id="path34"
             inkscape:connector-curvature="0" /></g><g
           id="g36"
           transform="translate(136.4041,286.605)"><path
             d="m 0,0 -18.325,9.968 0.129,68.943 18.324,-9.969 z"
             style="fill:#6b0806;fill-opacity:1;fill-rule:nonzero;stroke:none"
             id="path38"
             inkscape:connector-curvature="0" /></g><g
           id="g40"
           transform="translate(341.9733,384.3486)"><path
             d="M 0,0 C 0.391,0.032 0.781,0.06 1.169,0.08 1.366,0.09 1.563,0.098 1.759,0.105 2.138,0.119 2.515,0.126 2.891,0.128 3.072,0.129 3.255,0.132 3.436,0.13 3.901,0.126 4.363,0.112 4.823,0.09 4.905,0.086 4.988,0.086 5.07,0.081 5.609,0.052 6.144,0.009 6.676,-0.044 6.83,-0.06 6.982,-0.08 7.136,-0.098 7.517,-0.141 7.896,-0.188 8.271,-0.243 8.457,-0.27 8.641,-0.3 8.825,-0.33 c 0.353,-0.057 0.703,-0.12 1.052,-0.188 0.176,-0.034 0.352,-0.068 0.527,-0.105 0.398,-0.084 0.791,-0.176 1.183,-0.273 0.116,-0.028 0.232,-0.053 0.347,-0.083 0.51,-0.133 1.016,-0.277 1.517,-0.432 0.129,-0.04 0.256,-0.085 0.384,-0.126 0.375,-0.121 0.748,-0.247 1.116,-0.381 0.167,-0.06 0.333,-0.123 0.499,-0.186 0.34,-0.129 0.677,-0.264 1.012,-0.404 0.155,-0.065 0.31,-0.128 0.464,-0.195 0.421,-0.183 0.838,-0.375 1.251,-0.575 0.055,-0.027 0.112,-0.051 0.167,-0.078 0.411,-0.202 0.818,-0.412 1.219,-0.631 L 1.238,5.982 C 0.837,6.2 0.43,6.41 0.019,6.612 0.011,6.616 0.003,6.621 -0.005,6.625 -0.051,6.647 -0.099,6.667 -0.145,6.689 -0.558,6.89 -0.977,7.082 -1.399,7.266 -1.552,7.332 -1.708,7.396 -1.862,7.46 -2.197,7.6 -2.534,7.735 -2.875,7.864 -3.041,7.927 -3.206,7.99 -3.373,8.05 c -0.37,0.134 -0.742,0.26 -1.118,0.382 -0.127,0.041 -0.254,0.085 -0.382,0.125 -0.501,0.155 -1.007,0.3 -1.518,0.432 -0.021,0.006 -0.041,0.013 -0.062,0.018 -0.093,0.024 -0.189,0.042 -0.283,0.065 -0.392,0.098 -0.786,0.19 -1.185,0.274 -0.174,0.037 -0.35,0.07 -0.526,0.104 -0.349,0.068 -0.7,0.131 -1.053,0.188 -0.184,0.03 -0.368,0.06 -0.553,0.087 -0.376,0.055 -0.755,0.103 -1.135,0.146 -0.154,0.017 -0.307,0.038 -0.461,0.053 -0.532,0.053 -1.067,0.096 -1.606,0.125 -0.082,0.005 -0.164,0.005 -0.246,0.009 -0.46,0.022 -0.923,0.036 -1.388,0.04 -0.181,0.002 -0.363,-0.001 -0.545,-0.002 -0.376,-0.002 -0.753,-0.009 -1.131,-0.022 -0.197,-0.007 -0.393,-0.016 -0.59,-0.026 -0.388,-0.02 -0.779,-0.047 -1.169,-0.08 C -18.5,9.954 -18.676,9.942 -18.852,9.925 -19.415,9.871 -19.98,9.807 -20.549,9.727 l -203.217,-28.56 18.325,-9.968 203.216,28.56 c 0.569,0.08 1.135,0.143 1.698,0.198 C -0.351,-0.026 -0.176,-0.015 0,0"
             style="fill:#8f0e0a;fill-opacity:1;fill-rule:nonzero;stroke:none"
             id="path42"
             inkscape:connector-curvature="0" /></g></g></g><g
       id="g44"
       transform="matrix(1.2646078,0,0,1.2646078,-72.354479,-61.293453)"><g
         id="g46"
         clip-path="url(#clipPath50)"><g
           id="g52"
           transform="translate(317.9448,318.6623)"><path
             d="m 0,0 -18.023,-2.533 -0.017,-8.853 c 0,-0.324 -0.026,-0.645 -0.074,-0.962 l 15.028,2.112 c 2.331,0.328 4.25,-1.347 4.421,-3.786 1.459,0.74 3.006,1.243 4.56,1.461 1.241,0.175 2.491,0.178 3.692,-0.017 l 0.006,3.554 C 9.604,-3.301 5.303,0.745 0,0 m -71.557,-10.057 -18.408,-2.587 c -5.303,-0.745 -9.613,-6.001 -9.624,-11.725 l -0.234,-125.875 c -0.01,-5.724 4.283,-9.762 9.586,-9.017 l 89.965,12.644 c 5.303,0.745 9.621,5.994 9.631,11.717 l 0.016,8.197 c -1.202,-0.42 -2.436,-0.732 -3.694,-0.908 -1.562,-0.22 -3.076,-0.225 -4.533,-0.058 l -0.007,-3.666 c -0.005,-2.672 -2.003,-5.096 -4.462,-5.442 l -83.453,-11.728 c -2.467,-0.347 -4.45,1.518 -4.445,4.19 l 0.217,116.909 c 0.005,2.654 1.996,5.095 4.463,5.442 l 15.035,2.113 c -0.046,0.303 -0.07,0.617 -0.07,0.941 z"
             style="fill:#ffffff;fill-opacity:1;fill-rule:nonzero;stroke:none"
             id="path54"
             inkscape:connector-curvature="0" /></g><g
           id="g56"
           transform="translate(294.5099,325.9312)"><path
             d="m 0,0 -42.679,-5.998 c -2.997,-0.421 -5.428,-3.382 -5.434,-6.616 l -0.009,-4.712 -0.017,-8.853 c 0,-0.324 0.024,-0.638 0.07,-0.941 0.416,-2.723 2.647,-4.538 5.343,-4.159 l 42.679,5.998 c 2.696,0.379 4.941,2.823 5.368,5.664 0.048,0.317 0.073,0.638 0.074,0.962 L 5.411,-9.802 5.42,-5.09 C 5.426,-1.856 2.996,0.421 0,0"
             style="fill:#ffffff;fill-opacity:1;fill-rule:nonzero;stroke:none"
             id="path58"
             inkscape:connector-curvature="0" /></g><g
           id="g60"
           transform="translate(252.3119,282.4188)"><path
             d="m 0,0 c -2.538,-0.357 -4.85,-3.169 -4.855,-5.912 -0.005,-2.735 2.298,-4.899 4.836,-4.542 0.022,0.003 0.043,0.006 0.065,0.01 l 43.377,6.096 c 0.074,0.006 0.15,0.015 0.224,0.025 2.449,0.344 4.742,2.967 4.879,5.645 0.134,2.759 -2.048,5.071 -4.579,4.854 L 0.065,0.009 C 0.044,0.006 0.022,0.003 0,0"
             style="fill:#ffffff;fill-opacity:1;fill-rule:nonzero;stroke:none"
             id="path62"
             inkscape:connector-curvature="0" /></g><g
           id="g64"
           transform="translate(268.4125,267.256)"><path
             d="m 0,0 c -2.538,-0.357 -4.849,-3.169 -4.855,-5.904 -0.005,-2.743 2.298,-4.907 4.836,-4.55 0.022,0.003 0.043,0.006 0.065,0.01 l 27.244,3.829 c 0.074,0.006 0.149,0.014 0.224,0.025 2.448,0.344 4.742,2.975 4.879,5.645 0.134,2.758 -2.048,5.071 -4.579,4.853 L 0.065,0.009 C 0.044,0.006 0.022,0.003 0,0"
             style="fill:#ffffff;fill-opacity:1;fill-rule:nonzero;stroke:none"
             id="path66"
             inkscape:connector-curvature="0" /></g><g
           id="g68"
           transform="translate(252.2602,247.5688)"><path
             d="m 0,0 c -2.543,-0.357 -4.863,-3.175 -4.868,-5.914 -0.005,-2.747 2.306,-4.906 4.848,-4.548 0.018,0.002 0.035,0.005 0.053,0.008 l 43.376,6.096 c 0.071,0.006 0.142,0.014 0.213,0.024 2.453,0.344 4.754,2.972 4.891,5.646 0.133,2.759 -2.049,5.071 -4.58,4.862 L 0.052,0.007 C 0.035,0.005 0.017,0.002 0,0"
             style="fill:#ffffff;fill-opacity:1;fill-rule:nonzero;stroke:none"
             id="path70"
             inkscape:connector-curvature="0" /></g><g
           id="g72"
           transform="translate(323.8145,275.3183)"><path
             d="m 0,0 c -1.25,-0.21 -2.686,-1.423 -2.689,-3.308 l -0.09,-48.382 c -4.08,-1.844 -7.107,-6.332 -7.116,-11.114 -0.011,-5.784 4.386,-9.911 9.729,-9.16 5.359,0.753 9.758,6.116 9.769,11.901 0.008,4.781 -3.004,8.42 -7.063,9.12 L 2.63,-2.561 C 2.616,-1.327 1.746,0.159 0,0"
             style="fill:#ffffff;fill-opacity:1;fill-rule:nonzero;stroke:none"
             id="path74"
             inkscape:connector-curvature="0" /></g><g
           id="g76"
           transform="translate(323.836,304.1997)"><path
             d="m 0,0 c -6.28,-0.883 -12.585,-6.307 -12.567,-14.222 -0.399,-20.316 0.167,-39.331 -0.145,-60.465 -4.437,-4.582 -7.348,-10.895 -7.36,-17.552 -0.022,-11.837 8.908,-20.254 19.866,-18.714 10.958,1.54 19.94,12.475 19.962,24.311 0.012,6.632 -2.885,12.085 -7.275,15.427 l 0.112,60.529 C 12.576,-2.762 6.296,0.885 0,0 m -0.193,-104.166 c -7.562,-1.062 -13.606,4.64 -13.591,12.81 0.01,5.084 2.389,9.887 5.983,13.037 0.842,0.741 1.373,1.888 1.383,2.995 0.039,21.416 0.036,40.942 0.147,61.987 0.046,3.386 3.118,6.1 6.322,6.55 v -0.008 c 3.093,0.434 6.228,-1.39 6.254,-4.774 L 6.19,-73.586 c -0.002,-1.107 0.533,-2.104 1.372,-2.608 3.576,-2.142 5.907,-6.266 5.898,-11.333 -0.016,-8.17 -6.092,-15.576 -13.653,-16.639"
             style="fill:#ffffff;fill-opacity:1;fill-rule:nonzero;stroke:none"
             id="path78"
             inkscape:connector-curvature="0" /></g><g
           id="g80"
           transform="translate(268.3478,232.4044)"><path
             d="m 0,0 c -2.538,-0.357 -4.849,-3.169 -4.855,-5.912 -0.005,-2.735 2.298,-4.899 4.836,-4.542 0.022,0.003 0.043,0.006 0.065,0.01 l 27.244,3.829 c 0.075,0.006 0.15,0.014 0.224,0.025 2.449,0.344 4.742,2.967 4.879,5.645 0.134,2.75 -2.048,5.062 -4.579,4.853 L 0.065,0.009 C 0.044,0.006 0.022,0.003 0,0"
             style="fill:#ffffff;fill-opacity:1;fill-rule:nonzero;stroke:none"
             id="path82"
             inkscape:connector-curvature="0" /></g><g
           id="g84"
           transform="translate(252.1824,212.707)"><path
             d="m 0,0 c -2.538,-0.357 -4.85,-3.169 -4.855,-5.904 -0.005,-2.743 2.298,-4.907 4.836,-4.55 0.022,0.003 0.043,0.006 0.065,0.01 l 43.377,6.096 c 0.074,0.006 0.15,0.015 0.224,0.025 2.449,0.344 4.742,2.967 4.879,5.645 0.134,2.759 -2.048,5.071 -4.579,4.854 L 0.065,0.009 C 0.044,0.006 0.022,0.003 0,0"
             style="fill:#ffffff;fill-opacity:1;fill-rule:nonzero;stroke:none"
             id="path86"
             inkscape:connector-curvature="0" /></g><g
           id="g88"
           transform="translate(268.2961,197.5545)"><path
             d="m 0,0 c -2.543,-0.357 -4.863,-3.174 -4.868,-5.914 -0.005,-2.747 2.306,-4.906 4.848,-4.548 0.018,0.002 0.035,0.005 0.053,0.008 l 27.243,3.828 c 0.071,0.006 0.142,0.014 0.213,0.024 2.453,0.345 4.754,2.972 4.891,5.646 0.134,2.759 -2.048,5.072 -4.58,4.863 L 0.052,0.007 C 0.035,0.005 0.017,0.002 0,0"
             style="fill:#ffffff;fill-opacity:1;fill-rule:nonzero;stroke:none"
             id="path90"
             inkscape:connector-curvature="0" /></g></g></g></g></svg>